static_grf.mot
version=1
nRows=25
nColumns 19
inDegrees=yes
endheader
time	1_ground_force_vx	1_ground_force_vy	1_ground_force_vz	1_ground_force_px	1_ground_force_py	1_ground_force_pz	1_ground_torque_x	1_ground_torque_y	1_ground_torque_z	2_ground_force_vx	2_ground_force_vy	2_ground_force_vz	2_ground_force_px	2_ground_force_py	2_ground_force_pz	2_ground_torque_x	2_ground_torque_y	2_ground_torque_z
            0.902500	           -2.630477	          277.889805	          -22.326690	           -0.244665	            0.005930	           -0.337547	           -0.014839	            1.567652	           -0.125951	            0.840979	          263.069550	           24.730729	           -0.252480	            0.005461	           -0.666567	           -0.002943	           -0.920600	           -0.086544
            0.903000	           -2.492412	          278.069084	          -22.096979	           -0.243976	            0.005931	           -0.337658	           -0.013735	            1.532320	           -0.121767	            0.608018	          262.700696	           24.635658	           -0.252519	            0.005459	           -0.666114	           -0.002061	           -0.890653	           -0.083524
            0.903500	           -2.310016	          278.431223	          -22.462736	           -0.244530	            0.005930	           -0.337400	           -0.012832	            1.546626	           -0.124776	            0.697895	          263.804601	           25.014985	           -0.252498	            0.005462	           -0.666746	           -0.002389	           -0.902960	           -0.085622
            0.904000	           -2.401735	          278.611502	          -22.461735	           -0.244129	            0.005930	           -0.337350	           -0.013426	            1.557431	           -0.125560	            0.654224	          262.884900	           24.683223	           -0.252709	            0.005460	           -0.666519	           -0.002295	           -0.922209	           -0.086590
            0.904500	           -2.309465	          279.151107	          -22.184508	           -0.244251	            0.005929	           -0.337212	           -0.012413	            1.500438	           -0.119242	            0.701135	          262.884567	           24.823988	           -0.252987	            0.005458	           -0.666162	           -0.002507	           -0.940155	           -0.088778
            0.905000	           -2.310538	          278.792541	          -22.644613	           -0.244445	            0.005931	           -0.337591	           -0.012815	            1.546252	           -0.125593	            0.841000	          263.069382	           24.777657	           -0.252685	            0.005460	           -0.666496	           -0.003023	           -0.945477	           -0.089051
            0.905500	           -2.447318	          278.430804	          -22.370682	           -0.244546	            0.005930	           -0.337525	           -0.013811	            1.571314	           -0.126248	            0.796165	          262.516563	           24.822633	           -0.252382	            0.005460	           -0.666214	           -0.002740	           -0.903516	           -0.085433
            0.906000	           -2.539198	          278.250944	          -22.462939	           -0.244430	            0.005931	           -0.337662	           -0.014336	            1.570958	           -0.126822	            0.649592	          264.173717	           24.734750	           -0.252762	            0.005463	           -0.667262	           -0.002201	           -0.894898	           -0.083790
            0.906500	           -2.447105	          277.889841	          -22.327145	           -0.244715	            0.005929	           -0.337271	           -0.013466	            1.529159	           -0.122861	            0.418727	          263.251666	           24.872349	           -0.252629	            0.005460	           -0.666534	           -0.001363	           -0.856630	           -0.080935
            0.907000	           -2.493844	          278.431974	          -22.645704	           -0.244291	            0.005931	           -0.337634	           -0.013680	            1.527312	           -0.124221	            0.559839	          263.068870	           24.636992	           -0.252988	            0.005458	           -0.666277	           -0.001922	           -0.903128	           -0.084580
            0.907500	           -2.355485	          278.250390	          -22.325827	           -0.244082	            0.005930	           -0.337501	           -0.012878	            1.521265	           -0.122061	            0.700347	          263.069712	           24.543076	           -0.252630	            0.005461	           -0.666564	           -0.002413	           -0.906332	           -0.084556
            0.908000	           -2.447186	          277.709741	          -22.373774	           -0.244702	            0.005930	           -0.337537	           -0.014042	            1.593477	           -0.128379	            0.602681	          264.174050	           24.593986	           -0.252620	            0.005463	           -0.667262	           -0.002053	           -0.899748	           -0.083764
            0.908500	           -2.401406	          276.808845	          -22.469465	           -0.244263	            0.005933	           -0.338090	           -0.013604	            1.568117	           -0.127289	            1.120688	          263.439348	           24.591139	           -0.252575	            0.005461	           -0.666592	           -0.004194	           -0.985803	           -0.092021
            0.909000	           -2.356087	          278.431608	          -22.554334	           -0.244337	            0.005929	           -0.337280	           -0.012950	            1.530336	           -0.123965	            0.788874	          264.542065	           24.876789	           -0.252438	            0.005465	           -0.667496	           -0.002751	           -0.922452	           -0.086745
            0.909500	           -2.401475	          278.430813	          -22.370796	           -0.244344	            0.005930	           -0.337456	           -0.013307	            1.542778	           -0.123956	            0.887103	          263.254362	           24.590581	           -0.253021	            0.005459	           -0.666543	           -0.003290	           -0.976229	           -0.091190
            0.910000	           -2.355371	          278.250193	          -22.279971	           -0.244396	            0.005930	           -0.337496	           -0.013562	            1.602133	           -0.128286	            0.887267	          263.253023	           24.966006	           -0.252672	            0.005461	           -0.666827	           -0.003159	           -0.937306	           -0.088891
            0.910500	           -2.400789	          277.168197	          -22.192783	           -0.244391	            0.005930	           -0.337533	           -0.013514	            1.560152	           -0.124921	            0.794150	          263.069213	           24.777677	           -0.252346	            0.005463	           -0.666851	           -0.002690	           -0.891143	           -0.083934
            0.911000	           -2.401589	          278.431009	          -22.416652	           -0.244476	            0.005929	           -0.337126	           -0.013345	            1.547183	           -0.124565	            0.693845	          264.910008	           24.878143	           -0.252435	            0.005463	           -0.667157	           -0.002228	           -0.850668	           -0.079888
            0.911500	           -2.631436	          277.531043	          -22.740939	           -0.244538	            0.005931	           -0.337785	           -0.014786	            1.559482	           -0.127784	            0.744683	          263.805272	           24.874181	           -0.252505	            0.005463	           -0.667102	           -0.002508	           -0.888590	           -0.083785
            0.912000	           -2.263604	          278.430249	          -22.233570	           -0.244574	            0.005929	           -0.337231	           -0.013121	            1.613951	           -0.128879	            0.561915	          262.515717	           24.822733	           -0.252752	            0.005459	           -0.666353	           -0.001868	           -0.872917	           -0.082541
            0.912500	           -2.402026	          277.710930	          -22.649023	           -0.244231	            0.005930	           -0.337577	           -0.013345	            1.542857	           -0.125829	            0.884486	          263.990590	           24.687066	           -0.252689	            0.005461	           -0.666652	           -0.003155	           -0.941744	           -0.088067
            0.913000	           -2.538270	          277.528505	          -22.145040	           -0.244410	            0.005932	           -0.337961	           -0.013986	            1.529163	           -0.122018	            0.699142	          263.436989	           24.825959	           -0.252671	            0.005462	           -0.667012	           -0.002396	           -0.902865	           -0.085085
            0.913500	           -2.309918	          277.890457	          -22.465054	           -0.244412	            0.005932	           -0.337832	           -0.012979	            1.561359	           -0.126222	            0.695798	          264.357921	           24.782316	           -0.252609	            0.005463	           -0.667094	           -0.002320	           -0.881392	           -0.082626
            0.914000	           -2.310277	          278.611913	          -22.553674	           -0.244309	            0.005930	           -0.337565	           -0.013093	            1.579032	           -0.127823	            0.742648	          264.358090	           24.782296	           -0.252601	            0.005464	           -0.667522	           -0.002548	           -0.907163	           -0.085042
            0.914500	           -2.309462	          277.889671	          -22.281631	           -0.244343	            0.005930	           -0.337534	           -0.013105	            1.576843	           -0.126434	            1.022336	          264.728056	           24.595778	           -0.252509	            0.005463	           -0.667259	           -0.003444	           -0.891690	           -0.082847
